<svg xmlns="http://www.w3.org/2000/svg" viewBox="0 0 1200 630" fill="none">
  <defs>
    <linearGradient id="bg" x1="0" y1="0" x2="1200" y2="630" gradientUnits="userSpaceOnUse">
      <stop offset="0%" stop-color="#0a0a1a"/>
      <stop offset="100%" stop-color="#1a1a2e"/>
    </linearGradient>
    <linearGradient id="accent" x1="0" y1="0" x2="1" y2="1">
      <stop offset="0%" stop-color="#a3a3ff"/>
      <stop offset="100%" stop-color="#5b5bf7"/>
    </linearGradient>
    <radialGradient id="glow" cx="50%" cy="35%" r="45%">
      <stop offset="0%" stop-color="#7c7cff" stop-opacity="0.2"/>
      <stop offset="100%" stop-color="#7c7cff" stop-opacity="0"/>
    </radialGradient>
  </defs>
  <rect width="1200" height="630" fill="url(#bg)"/>
  <rect width="1200" height="630" fill="url(#glow)"/>
  <circle cx="900" cy="100" r="180" fill="#5b5bf7" opacity="0.04"/>
  <circle cx="300" cy="530" r="220" fill="#7c7cff" opacity="0.04"/>
  <g transform="translate(480,140)">
    <rect width="240" height="180" rx="16" fill="white" opacity="0.04" stroke="#5b5bf7" stroke-opacity="0.2" stroke-width="1.5"/>
    <rect x="20" y="20" width="120" height="10" rx="5" fill="#5b5bf7" opacity="0.3"/>
    <rect x="20" y="40" width="80" height="10" rx="5" fill="#5b5bf7" opacity="0.15"/>
    <rect x="20" y="70" width="200" height="30" rx="8" fill="#7c7cff" opacity="0.1"/>
    <text x="120" y="90" font-family="system-ui" font-size="12" fill="#a3a3ff" text-anchor="middle">How can I help?</text>
    <rect x="60" y="115" width="160" height="25" rx="12" fill="#5b5bf7" opacity="0.6"/>
    <text x="140" y="132" font-family="system-ui" font-size="11" fill="white" text-anchor="middle">Tell me about AI</text>
    <rect x="20" y="150" width="140" height="20" rx="10" fill="white" opacity="0.06"/>
    <circle cx="35" cy="160" r="4" fill="#a3a3ff" opacity="0.5"/>
    <circle cx="47" cy="160" r="4" fill="#a3a3ff" opacity="0.3"/>
    <circle cx="59" cy="160" r="4" fill="#a3a3ff" opacity="0.15"/>
  </g>
  <text x="600" y="380" font-family="system-ui, sans-serif" font-size="42" font-weight="700" fill="white" text-anchor="middle" letter-spacing="-1">AI Chatbots</text>
  <text x="600" y="420" font-family="system-ui, sans-serif" font-size="20" fill="#a3a3ff" text-anchor="middle">Vercel AI SDK + LangChain</text>
  <g transform="translate(440,460)">
    <circle cx="0" cy="0" r="6" fill="#5b5bf7" opacity="0.6"/>
    <line x1="6" y1="0" x2="60" y2="-20" stroke="#5b5bf7" stroke-opacity="0.3" stroke-width="1"/>
    <circle cx="60" cy="-20" r="4" fill="#7c7cff" opacity="0.5"/>
    <line x1="64" y1="-20" x2="120" y2="0" stroke="#7c7cff" stroke-opacity="0.3" stroke-width="1"/>
    <circle cx="120" cy="0" r="6" fill="#5b5bf7" opacity="0.6"/>
    <line x1="126" y1="0" x2="180" y2="-15" stroke="#5b5bf7" stroke-opacity="0.3" stroke-width="1"/>
    <circle cx="180" cy="-15" r="4" fill="#a3a3ff" opacity="0.5"/>
    <line x1="184" y1="-15" x2="240" y2="5" stroke="#a3a3ff" stroke-opacity="0.3" stroke-width="1"/>
    <circle cx="240" cy="5" r="5" fill="#7c7cff" opacity="0.6"/>
    <line x1="245" y1="5" x2="300" y2="-10" stroke="#7c7cff" stroke-opacity="0.3" stroke-width="1"/>
    <circle cx="300" cy="-10" r="4" fill="#5b5bf7" opacity="0.4"/>
  </g>
</svg>
